<mxfile host="www.draw.io" modified="2020-01-20T01:53:02.422Z" agent="Mozilla/5.0 (Windows NT 10.0; Win64; x64) AppleWebKit/537.36 (KHTML, like Gecko) Chrome/75.0.3770.142 Safari/537.36" etag="i16DSpmI9ZNVisceKTuZ" version="12.5.5" type="github">
  <diagram id="RKnLfBxMeZX2sV_eoKo-" name="第 1 页">
    <mxGraphModel dx="1221" dy="645" grid="1" gridSize="10" guides="1" tooltips="1" connect="1" arrows="1" fold="1" page="1" pageScale="1" pageWidth="827" pageHeight="1169" math="0" shadow="0">
      <root>
        <mxCell id="0"/>
        <mxCell id="1" parent="0"/>
        <mxCell id="ZlRSLeDhTzatzAjQkpeC-1" value="" style="rounded=0;whiteSpace=wrap;html=1;" vertex="1" parent="1">
          <mxGeometry x="90" y="80" width="660" height="240" as="geometry"/>
        </mxCell>
        <mxCell id="ZlRSLeDhTzatzAjQkpeC-2" value="NameNode" style="text;html=1;strokeColor=none;fillColor=none;align=center;verticalAlign=middle;whiteSpace=wrap;rounded=0;" vertex="1" parent="1">
          <mxGeometry x="400" y="100" width="40" height="20" as="geometry"/>
        </mxCell>
        <mxCell id="ZlRSLeDhTzatzAjQkpeC-8" style="edgeStyle=orthogonalEdgeStyle;rounded=0;orthogonalLoop=1;jettySize=auto;html=1;exitX=0.75;exitY=0;exitDx=0;exitDy=0;entryX=0;entryY=0.5;entryDx=0;entryDy=0;" edge="1" parent="1" source="ZlRSLeDhTzatzAjQkpeC-3" target="ZlRSLeDhTzatzAjQkpeC-7">
          <mxGeometry relative="1" as="geometry"/>
        </mxCell>
        <mxCell id="ZlRSLeDhTzatzAjQkpeC-9" value="管理block" style="text;html=1;align=center;verticalAlign=middle;resizable=0;points=[];labelBackgroundColor=#ffffff;" vertex="1" connectable="0" parent="ZlRSLeDhTzatzAjQkpeC-8">
          <mxGeometry x="0.0543" relative="1" as="geometry">
            <mxPoint as="offset"/>
          </mxGeometry>
        </mxCell>
        <mxCell id="ZlRSLeDhTzatzAjQkpeC-11" style="edgeStyle=orthogonalEdgeStyle;rounded=0;orthogonalLoop=1;jettySize=auto;html=1;" edge="1" parent="1" source="ZlRSLeDhTzatzAjQkpeC-3" target="ZlRSLeDhTzatzAjQkpeC-10">
          <mxGeometry relative="1" as="geometry"/>
        </mxCell>
        <mxCell id="ZlRSLeDhTzatzAjQkpeC-12" value="放入block" style="text;html=1;align=center;verticalAlign=middle;resizable=0;points=[];labelBackgroundColor=#ffffff;" vertex="1" connectable="0" parent="ZlRSLeDhTzatzAjQkpeC-11">
          <mxGeometry x="-0.255" y="-1" relative="1" as="geometry">
            <mxPoint x="10" y="-1" as="offset"/>
          </mxGeometry>
        </mxCell>
        <mxCell id="ZlRSLeDhTzatzAjQkpeC-3" value="BlockManager" style="rounded=0;whiteSpace=wrap;html=1;" vertex="1" parent="1">
          <mxGeometry x="260" y="210" width="80" height="40" as="geometry"/>
        </mxCell>
        <mxCell id="ZlRSLeDhTzatzAjQkpeC-31" style="edgeStyle=orthogonalEdgeStyle;rounded=0;orthogonalLoop=1;jettySize=auto;html=1;entryX=0.25;entryY=0;entryDx=0;entryDy=0;" edge="1" parent="1" source="ZlRSLeDhTzatzAjQkpeC-5" target="ZlRSLeDhTzatzAjQkpeC-3">
          <mxGeometry relative="1" as="geometry"/>
        </mxCell>
        <mxCell id="ZlRSLeDhTzatzAjQkpeC-5" value="HeartbeatManager" style="rounded=0;whiteSpace=wrap;html=1;" vertex="1" parent="1">
          <mxGeometry x="120" y="150" width="130" height="40" as="geometry"/>
        </mxCell>
        <mxCell id="ZlRSLeDhTzatzAjQkpeC-7" value="内存数据结构" style="rounded=0;whiteSpace=wrap;html=1;" vertex="1" parent="1">
          <mxGeometry x="420" y="150" width="80" height="40" as="geometry"/>
        </mxCell>
        <mxCell id="ZlRSLeDhTzatzAjQkpeC-15" style="edgeStyle=orthogonalEdgeStyle;rounded=0;orthogonalLoop=1;jettySize=auto;html=1;entryX=0;entryY=0.5;entryDx=0;entryDy=0;" edge="1" parent="1" source="ZlRSLeDhTzatzAjQkpeC-10" target="ZlRSLeDhTzatzAjQkpeC-13">
          <mxGeometry relative="1" as="geometry"/>
        </mxCell>
        <mxCell id="ZlRSLeDhTzatzAjQkpeC-16" value="每隔3秒" style="text;html=1;align=center;verticalAlign=middle;resizable=0;points=[];labelBackgroundColor=#ffffff;" vertex="1" connectable="0" parent="ZlRSLeDhTzatzAjQkpeC-15">
          <mxGeometry x="-0.2583" relative="1" as="geometry">
            <mxPoint as="offset"/>
          </mxGeometry>
        </mxCell>
        <mxCell id="ZlRSLeDhTzatzAjQkpeC-10" value="待复制的队列" style="rounded=0;whiteSpace=wrap;html=1;" vertex="1" parent="1">
          <mxGeometry x="420" y="210" width="80" height="40" as="geometry"/>
        </mxCell>
        <mxCell id="ZlRSLeDhTzatzAjQkpeC-30" style="edgeStyle=orthogonalEdgeStyle;rounded=0;orthogonalLoop=1;jettySize=auto;html=1;entryX=0.5;entryY=1;entryDx=0;entryDy=0;" edge="1" parent="1" source="ZlRSLeDhTzatzAjQkpeC-13" target="ZlRSLeDhTzatzAjQkpeC-17">
          <mxGeometry relative="1" as="geometry"/>
        </mxCell>
        <mxCell id="ZlRSLeDhTzatzAjQkpeC-13" value="ReplicationMonitor" style="rounded=0;whiteSpace=wrap;html=1;" vertex="1" parent="1">
          <mxGeometry x="590" y="210" width="110" height="40" as="geometry"/>
        </mxCell>
        <mxCell id="ZlRSLeDhTzatzAjQkpeC-17" value="" style="rounded=0;whiteSpace=wrap;html=1;" vertex="1" parent="1">
          <mxGeometry x="560" y="120" width="170" height="60" as="geometry"/>
        </mxCell>
        <mxCell id="ZlRSLeDhTzatzAjQkpeC-18" value="Source DataNode" style="text;html=1;strokeColor=none;fillColor=none;align=center;verticalAlign=middle;whiteSpace=wrap;rounded=0;" vertex="1" parent="1">
          <mxGeometry x="587.5" y="120" width="115" height="20" as="geometry"/>
        </mxCell>
        <mxCell id="ZlRSLeDhTzatzAjQkpeC-19" value="task" style="rounded=0;whiteSpace=wrap;html=1;" vertex="1" parent="1">
          <mxGeometry x="570" y="150" width="30" height="20" as="geometry"/>
        </mxCell>
        <mxCell id="ZlRSLeDhTzatzAjQkpeC-20" value="task" style="rounded=0;whiteSpace=wrap;html=1;" vertex="1" parent="1">
          <mxGeometry x="600" y="150" width="30" height="20" as="geometry"/>
        </mxCell>
        <mxCell id="ZlRSLeDhTzatzAjQkpeC-21" value="task" style="rounded=0;whiteSpace=wrap;html=1;" vertex="1" parent="1">
          <mxGeometry x="630" y="150" width="30" height="20" as="geometry"/>
        </mxCell>
        <mxCell id="ZlRSLeDhTzatzAjQkpeC-22" value="task" style="rounded=0;whiteSpace=wrap;html=1;" vertex="1" parent="1">
          <mxGeometry x="660" y="150" width="30" height="20" as="geometry"/>
        </mxCell>
        <mxCell id="ZlRSLeDhTzatzAjQkpeC-24" value="task" style="rounded=0;whiteSpace=wrap;html=1;" vertex="1" parent="1">
          <mxGeometry x="690" y="150" width="30" height="20" as="geometry"/>
        </mxCell>
        <mxCell id="ZlRSLeDhTzatzAjQkpeC-53" style="edgeStyle=orthogonalEdgeStyle;rounded=0;orthogonalLoop=1;jettySize=auto;html=1;exitX=1;exitY=0.75;exitDx=0;exitDy=0;entryX=0;entryY=0.5;entryDx=0;entryDy=0;" edge="1" parent="1" source="ZlRSLeDhTzatzAjQkpeC-32" target="ZlRSLeDhTzatzAjQkpeC-3">
          <mxGeometry relative="1" as="geometry">
            <Array as="points">
              <mxPoint x="250" y="270"/>
              <mxPoint x="240" y="270"/>
              <mxPoint x="240" y="230"/>
            </Array>
          </mxGeometry>
        </mxCell>
        <mxCell id="ZlRSLeDhTzatzAjQkpeC-54" style="edgeStyle=orthogonalEdgeStyle;rounded=0;orthogonalLoop=1;jettySize=auto;html=1;exitX=0.75;exitY=0;exitDx=0;exitDy=0;entryX=0;entryY=0.25;entryDx=0;entryDy=0;" edge="1" parent="1" source="ZlRSLeDhTzatzAjQkpeC-32" target="ZlRSLeDhTzatzAjQkpeC-3">
          <mxGeometry relative="1" as="geometry">
            <Array as="points">
              <mxPoint x="220" y="270"/>
              <mxPoint x="220" y="220"/>
            </Array>
          </mxGeometry>
        </mxCell>
        <mxCell id="ZlRSLeDhTzatzAjQkpeC-32" value="NameNodeRpcServer" style="rounded=0;whiteSpace=wrap;html=1;" vertex="1" parent="1">
          <mxGeometry x="120" y="270" width="130" height="40" as="geometry"/>
        </mxCell>
        <mxCell id="ZlRSLeDhTzatzAjQkpeC-46" style="edgeStyle=orthogonalEdgeStyle;rounded=0;orthogonalLoop=1;jettySize=auto;html=1;entryX=1;entryY=0.5;entryDx=0;entryDy=0;" edge="1" parent="1" source="ZlRSLeDhTzatzAjQkpeC-33" target="ZlRSLeDhTzatzAjQkpeC-32">
          <mxGeometry relative="1" as="geometry">
            <Array as="points">
              <mxPoint x="360" y="290"/>
            </Array>
          </mxGeometry>
        </mxCell>
        <mxCell id="ZlRSLeDhTzatzAjQkpeC-47" value="启动时/每隔6小时&lt;br&gt;全量上报的block" style="text;html=1;align=center;verticalAlign=middle;resizable=0;points=[];labelBackgroundColor=#ffffff;fontColor=#FF0000;" vertex="1" connectable="0" parent="ZlRSLeDhTzatzAjQkpeC-46">
          <mxGeometry x="-0.678" y="1" relative="1" as="geometry">
            <mxPoint x="11" y="-38" as="offset"/>
          </mxGeometry>
        </mxCell>
        <mxCell id="ZlRSLeDhTzatzAjQkpeC-33" value="" style="rounded=0;whiteSpace=wrap;html=1;" vertex="1" parent="1">
          <mxGeometry x="90" y="380" width="290" height="180" as="geometry"/>
        </mxCell>
        <mxCell id="ZlRSLeDhTzatzAjQkpeC-34" value="DataNode" style="text;html=1;strokeColor=none;fillColor=none;align=center;verticalAlign=middle;whiteSpace=wrap;rounded=0;" vertex="1" parent="1">
          <mxGeometry x="215" y="390" width="40" height="20" as="geometry"/>
        </mxCell>
        <mxCell id="ZlRSLeDhTzatzAjQkpeC-38" style="edgeStyle=orthogonalEdgeStyle;rounded=0;orthogonalLoop=1;jettySize=auto;html=1;exitX=0.75;exitY=0;exitDx=0;exitDy=0;entryX=0.75;entryY=1;entryDx=0;entryDy=0;" edge="1" parent="1" source="ZlRSLeDhTzatzAjQkpeC-35" target="ZlRSLeDhTzatzAjQkpeC-32">
          <mxGeometry relative="1" as="geometry"/>
        </mxCell>
        <mxCell id="ZlRSLeDhTzatzAjQkpeC-39" value="准备接收&lt;br&gt;一个新的block" style="text;html=1;align=center;verticalAlign=middle;resizable=0;points=[];labelBackgroundColor=#ffffff;" vertex="1" connectable="0" parent="ZlRSLeDhTzatzAjQkpeC-38">
          <mxGeometry x="0.2553" relative="1" as="geometry">
            <mxPoint x="-2.97" y="-21" as="offset"/>
          </mxGeometry>
        </mxCell>
        <mxCell id="ZlRSLeDhTzatzAjQkpeC-35" value="初始化pipeline" style="rounded=0;whiteSpace=wrap;html=1;" vertex="1" parent="1">
          <mxGeometry x="120" y="430" width="90" height="30" as="geometry"/>
        </mxCell>
        <mxCell id="ZlRSLeDhTzatzAjQkpeC-37" style="edgeStyle=orthogonalEdgeStyle;rounded=0;orthogonalLoop=1;jettySize=auto;html=1;entryX=0.5;entryY=0;entryDx=0;entryDy=0;" edge="1" parent="1" source="ZlRSLeDhTzatzAjQkpeC-36" target="ZlRSLeDhTzatzAjQkpeC-35">
          <mxGeometry relative="1" as="geometry"/>
        </mxCell>
        <mxCell id="ZlRSLeDhTzatzAjQkpeC-36" value="hdfs客户端" style="rounded=0;whiteSpace=wrap;html=1;" vertex="1" parent="1">
          <mxGeometry y="330" width="90" height="30" as="geometry"/>
        </mxCell>
        <mxCell id="ZlRSLeDhTzatzAjQkpeC-42" style="edgeStyle=orthogonalEdgeStyle;rounded=0;orthogonalLoop=1;jettySize=auto;html=1;entryX=0;entryY=0.5;entryDx=0;entryDy=0;" edge="1" parent="1" source="ZlRSLeDhTzatzAjQkpeC-40" target="ZlRSLeDhTzatzAjQkpeC-41">
          <mxGeometry relative="1" as="geometry"/>
        </mxCell>
        <mxCell id="ZlRSLeDhTzatzAjQkpeC-43" value="确认接收block" style="text;html=1;align=center;verticalAlign=middle;resizable=0;points=[];labelBackgroundColor=#ffffff;" vertex="1" connectable="0" parent="ZlRSLeDhTzatzAjQkpeC-42">
          <mxGeometry x="-0.1484" y="1" relative="1" as="geometry">
            <mxPoint x="11" y="-7" as="offset"/>
          </mxGeometry>
        </mxCell>
        <mxCell id="ZlRSLeDhTzatzAjQkpeC-40" value="PacketResponder" style="rounded=0;whiteSpace=wrap;html=1;" vertex="1" parent="1">
          <mxGeometry x="110" y="480" width="110" height="30" as="geometry"/>
        </mxCell>
        <mxCell id="ZlRSLeDhTzatzAjQkpeC-44" style="edgeStyle=orthogonalEdgeStyle;rounded=0;orthogonalLoop=1;jettySize=auto;html=1;entryX=1;entryY=0.75;entryDx=0;entryDy=0;" edge="1" parent="1" source="ZlRSLeDhTzatzAjQkpeC-41" target="ZlRSLeDhTzatzAjQkpeC-32">
          <mxGeometry relative="1" as="geometry">
            <Array as="points">
              <mxPoint x="300" y="300"/>
            </Array>
          </mxGeometry>
        </mxCell>
        <mxCell id="ZlRSLeDhTzatzAjQkpeC-45" value="每隔5分钟&lt;br&gt;上报增量变化的&lt;br&gt;block" style="text;html=1;align=center;verticalAlign=middle;resizable=0;points=[];labelBackgroundColor=#ffffff;fontColor=#FF0000;" vertex="1" connectable="0" parent="ZlRSLeDhTzatzAjQkpeC-44">
          <mxGeometry x="-0.1102" y="1" relative="1" as="geometry">
            <mxPoint as="offset"/>
          </mxGeometry>
        </mxCell>
        <mxCell id="ZlRSLeDhTzatzAjQkpeC-41" value="BPServiceActor" style="rounded=0;whiteSpace=wrap;html=1;" vertex="1" parent="1">
          <mxGeometry x="260" y="430" width="110" height="30" as="geometry"/>
        </mxCell>
        <mxCell id="ZlRSLeDhTzatzAjQkpeC-49" style="edgeStyle=orthogonalEdgeStyle;rounded=0;orthogonalLoop=1;jettySize=auto;html=1;entryX=1;entryY=0.25;entryDx=0;entryDy=0;" edge="1" parent="1" source="ZlRSLeDhTzatzAjQkpeC-48" target="ZlRSLeDhTzatzAjQkpeC-32">
          <mxGeometry relative="1" as="geometry">
            <Array as="points">
              <mxPoint x="450" y="515"/>
              <mxPoint x="450" y="280"/>
            </Array>
          </mxGeometry>
        </mxCell>
        <mxCell id="ZlRSLeDhTzatzAjQkpeC-50" value="扫描破损的&lt;br&gt;block" style="text;html=1;align=center;verticalAlign=middle;resizable=0;points=[];labelBackgroundColor=#ffffff;fontColor=#FF0000;" vertex="1" connectable="0" parent="ZlRSLeDhTzatzAjQkpeC-49">
          <mxGeometry x="-0.2808" y="-1" relative="1" as="geometry">
            <mxPoint as="offset"/>
          </mxGeometry>
        </mxCell>
        <mxCell id="ZlRSLeDhTzatzAjQkpeC-52" style="edgeStyle=orthogonalEdgeStyle;rounded=0;orthogonalLoop=1;jettySize=auto;html=1;entryX=0.5;entryY=0;entryDx=0;entryDy=0;" edge="1" parent="1" source="ZlRSLeDhTzatzAjQkpeC-48" target="ZlRSLeDhTzatzAjQkpeC-51">
          <mxGeometry relative="1" as="geometry"/>
        </mxCell>
        <mxCell id="ZlRSLeDhTzatzAjQkpeC-48" value="BlockScanner" style="rounded=0;whiteSpace=wrap;html=1;" vertex="1" parent="1">
          <mxGeometry x="260" y="500" width="110" height="30" as="geometry"/>
        </mxCell>
        <mxCell id="ZlRSLeDhTzatzAjQkpeC-51" value="磁盘文件" style="rounded=0;whiteSpace=wrap;html=1;" vertex="1" parent="1">
          <mxGeometry x="255" y="590" width="120" height="60" as="geometry"/>
        </mxCell>
        <mxCell id="ZlRSLeDhTzatzAjQkpeC-55" value="" style="rounded=0;whiteSpace=wrap;html=1;" vertex="1" parent="1">
          <mxGeometry x="562.5" y="350" width="165" height="140" as="geometry"/>
        </mxCell>
        <mxCell id="ZlRSLeDhTzatzAjQkpeC-65" style="edgeStyle=orthogonalEdgeStyle;rounded=0;orthogonalLoop=1;jettySize=auto;html=1;entryX=0.845;entryY=1.002;entryDx=0;entryDy=0;entryPerimeter=0;" edge="1" parent="1" source="ZlRSLeDhTzatzAjQkpeC-56" target="ZlRSLeDhTzatzAjQkpeC-1">
          <mxGeometry relative="1" as="geometry"/>
        </mxCell>
        <mxCell id="ZlRSLeDhTzatzAjQkpeC-66" value="发送心跳" style="text;html=1;align=center;verticalAlign=middle;resizable=0;points=[];labelBackgroundColor=#ffffff;" vertex="1" connectable="0" parent="ZlRSLeDhTzatzAjQkpeC-65">
          <mxGeometry x="-0.6118" relative="1" as="geometry">
            <mxPoint x="0.06" y="-3.89" as="offset"/>
          </mxGeometry>
        </mxCell>
        <mxCell id="ZlRSLeDhTzatzAjQkpeC-56" value="DataNode&lt;br&gt;（选中的source）" style="text;html=1;strokeColor=none;fillColor=none;align=center;verticalAlign=middle;whiteSpace=wrap;rounded=0;" vertex="1" parent="1">
          <mxGeometry x="595.5" y="350" width="102" height="30" as="geometry"/>
        </mxCell>
        <mxCell id="ZlRSLeDhTzatzAjQkpeC-59" style="edgeStyle=orthogonalEdgeStyle;rounded=0;orthogonalLoop=1;jettySize=auto;html=1;entryX=0.5;entryY=0;entryDx=0;entryDy=0;" edge="1" parent="1" source="ZlRSLeDhTzatzAjQkpeC-57" target="ZlRSLeDhTzatzAjQkpeC-58">
          <mxGeometry relative="1" as="geometry"/>
        </mxCell>
        <mxCell id="ZlRSLeDhTzatzAjQkpeC-57" value="BPServiceActor" style="rounded=0;whiteSpace=wrap;html=1;" vertex="1" parent="1">
          <mxGeometry x="591.5" y="390" width="110" height="30" as="geometry"/>
        </mxCell>
        <mxCell id="ZlRSLeDhTzatzAjQkpeC-61" style="edgeStyle=orthogonalEdgeStyle;rounded=0;orthogonalLoop=1;jettySize=auto;html=1;" edge="1" parent="1" source="ZlRSLeDhTzatzAjQkpeC-58" target="ZlRSLeDhTzatzAjQkpeC-60">
          <mxGeometry relative="1" as="geometry"/>
        </mxCell>
        <mxCell id="ZlRSLeDhTzatzAjQkpeC-58" value="DataTransfer线程" style="rounded=0;whiteSpace=wrap;html=1;" vertex="1" parent="1">
          <mxGeometry x="591.5" y="450" width="110" height="30" as="geometry"/>
        </mxCell>
        <mxCell id="ZlRSLeDhTzatzAjQkpeC-60" value="DataNode&lt;br&gt;（选中的target）" style="rounded=0;whiteSpace=wrap;html=1;" vertex="1" parent="1">
          <mxGeometry x="599" y="520" width="95" height="46" as="geometry"/>
        </mxCell>
        <mxCell id="ZlRSLeDhTzatzAjQkpeC-62" style="edgeStyle=orthogonalEdgeStyle;rounded=0;orthogonalLoop=1;jettySize=auto;html=1;exitX=0.5;exitY=1;exitDx=0;exitDy=0;entryX=0;entryY=0.5;entryDx=0;entryDy=0;" edge="1" parent="1" source="ZlRSLeDhTzatzAjQkpeC-3" target="ZlRSLeDhTzatzAjQkpeC-57">
          <mxGeometry relative="1" as="geometry">
            <Array as="points">
              <mxPoint x="300" y="270"/>
              <mxPoint x="510" y="270"/>
              <mxPoint x="510" y="405"/>
            </Array>
          </mxGeometry>
        </mxCell>
        <mxCell id="ZlRSLeDhTzatzAjQkpeC-63" value="返回复制指令" style="text;html=1;align=center;verticalAlign=middle;resizable=0;points=[];labelBackgroundColor=#ffffff;" vertex="1" connectable="0" parent="ZlRSLeDhTzatzAjQkpeC-62">
          <mxGeometry x="0.2161" y="1" relative="1" as="geometry">
            <mxPoint y="-12" as="offset"/>
          </mxGeometry>
        </mxCell>
      </root>
    </mxGraphModel>
  </diagram>
</mxfile>
